<?xml version="1.0" standalone="no"?>
<!DOCTYPE svg PUBLIC "-//W3C//DTD SVG 20010904//EN"
 "http://www.w3.org/TR/2001/REC-SVG-20010904/DTD/svg10.dtd">
<svg version="1.0" xmlns="http://www.w3.org/2000/svg"
 width="425.000000pt" height="425.000000pt" viewBox="0 0 425.000000 425.000000"
 preserveAspectRatio="xMidYMid meet">
<metadata>
Created by potrace 1.11, written by Peter Selinger 2001-2013
</metadata>
<g transform="translate(0.000000,425.000000) scale(0.100000,-0.100000)"
fill="#000000" stroke="none">
<path d="M0 3801 l0 -451 93 -1 c50 0 99 -2 107 -3 8 -2 38 -6 65 -9 171 -21
397 -115 546 -227 540 -405 652 -1165 251 -1705 -96 -129 -257 -268 -402 -347
-55 -30 -168 -79 -194 -84 -10 -2 -42 -10 -70 -18 -97 -28 -185 -39 -308 -40
l-88 0 0 -447 c0 -418 1 -448 17 -453 19 -5 253 1 288 8 11 2 49 7 85 11 79 9
74 8 185 34 291 69 599 219 835 408 98 78 240 219 315 313 33 41 62 77 66 80
21 19 134 205 184 305 80 157 160 381 179 498 3 20 10 56 15 79 32 146 43 392
27 573 -6 67 -42 276 -61 350 -8 33 -65 208 -74 230 -5 11 -16 37 -25 58 -112
261 -269 489 -478 692 -57 55 -132 122 -168 148 -36 26 -72 54 -80 60 -42 34
-187 120 -275 164 -151 76 -386 159 -499 177 -21 4 -41 8 -45 10 -3 2 -35 7
-71 11 -36 4 -68 9 -72 12 -5 2 -84 7 -178 10 l-170 6 0 -452z"/>
<path d="M2576 4241 c-3 -4 -7 -22 -8 -40 -1 -17 -5 -31 -8 -31 -9 0 -9 -2
-13 -192 -3 -107 -1 -165 5 -162 6 4 5 -3 -1 -15 -7 -11 -8 -21 -3 -21 4 0 8
-9 9 -20 1 -13 -2 -18 -10 -13 -7 3 -4 -2 5 -13 14 -16 15 -23 5 -34 -9 -10
-9 -11 1 -6 8 5 12 -1 13 -16 1 -23 4 -39 8 -48 4 -8 12 -44 13 -57 1 -7 6
-13 11 -13 6 0 8 -3 4 -6 -3 -4 0 -21 8 -39 7 -19 11 -36 7 -39 -3 -3 -1 -6 4
-6 8 0 33 -51 40 -82 1 -5 3 -11 4 -15 1 -5 2 -12 1 -16 -1 -5 2 -6 7 -3 5 3
17 -12 27 -34 10 -22 22 -40 27 -40 5 0 7 -4 4 -9 -3 -5 5 -20 19 -35 13 -14
22 -26 20 -26 -3 0 4 -10 15 -22 10 -13 20 -27 22 -33 1 -5 21 -27 43 -49 22
-21 39 -42 38 -47 -2 -5 1 -9 6 -9 5 0 35 -25 67 -55 33 -30 65 -55 72 -55 7
0 10 -4 7 -10 -3 -5 1 -10 9 -10 9 0 16 -4 16 -10 0 -5 7 -10 15 -10 9 0 18
-7 21 -15 4 -8 10 -12 15 -9 5 3 9 0 9 -5 0 -6 7 -11 15 -11 8 0 15 -4 15 -9
0 -5 11 -12 25 -15 14 -4 25 -11 25 -17 0 -6 5 -7 10 -4 6 3 10 1 10 -4 0 -6
3 -10 8 -10 14 3 72 -23 72 -33 0 -5 5 -6 10 -3 6 3 10 1 10 -5 0 -6 4 -9 9
-6 5 4 30 -3 55 -14 25 -10 46 -17 46 -13 0 3 6 0 13 -6 8 -6 16 -9 19 -6 3 3
22 -1 44 -8 21 -8 47 -13 57 -11 9 1 17 -1 17 -6 0 -5 8 -7 18 -5 9 1 23 -2
30 -8 8 -6 12 -6 12 3 0 9 4 9 13 2 13 -10 317 -13 317 -2 0 3 15 5 32 4 18
-1 38 2 44 7 6 5 27 10 47 11 20 2 37 5 37 8 0 3 12 7 27 8 15 1 32 7 37 12 6
6 18 10 28 10 17 0 18 35 18 755 l0 755 -834 0 c-459 0 -837 -4 -840 -9z"/>
</g>
</svg>
